<svg xmlns="http://www.w3.org/2000/svg" xmlns:xlink="http://www.w3.org/1999/xlink" width="40" zoomAndPan="magnify" viewBox="0 0 30 30.000001" height="40" preserveAspectRatio="xMidYMid meet" version="1.0"><defs><clipPath id="55629f69f9"><path d="M 4 3 L 26 3 L 26 26 L 4 26 Z M 4 3 " clip-rule="nonzero"/></clipPath><clipPath id="870a1b19e6"><path d="M 5.617188 10.71875 C 5.90625 10.886719 6.21875 10.941406 6.550781 10.878906 C 6.882812 10.816406 7.152344 10.65625 7.363281 10.394531 L 9.300781 11.519531 C 8.84375 12.386719 8.601562 13.308594 8.578125 14.292969 L 7.609375 14.292969 C 7.59375 14.179688 7.5625 14.070312 7.519531 13.964844 C 7.472656 13.859375 7.417969 13.761719 7.347656 13.671875 C 7.277344 13.582031 7.199219 13.503906 7.109375 13.429688 C 7.019531 13.359375 6.921875 13.300781 6.820312 13.257812 C 6.714844 13.210938 6.609375 13.175781 6.496094 13.15625 C 6.382812 13.136719 6.269531 13.132812 6.15625 13.140625 C 6.042969 13.148438 5.933594 13.171875 5.824219 13.210938 C 5.71875 13.246094 5.617188 13.292969 5.519531 13.355469 C 5.425781 13.417969 5.339844 13.492188 5.261719 13.574219 C 5.183594 13.660156 5.117188 13.75 5.0625 13.851562 C 5.011719 13.949219 4.96875 14.054688 4.941406 14.164062 C 4.914062 14.277344 4.898438 14.386719 4.898438 14.5 C 4.898438 14.617188 4.914062 14.726562 4.941406 14.835938 C 4.96875 14.949219 5.011719 15.054688 5.0625 15.152344 C 5.117188 15.253906 5.183594 15.34375 5.261719 15.429688 C 5.339844 15.511719 5.425781 15.585938 5.519531 15.648438 C 5.617188 15.707031 5.71875 15.757812 5.824219 15.792969 C 5.933594 15.832031 6.042969 15.851562 6.15625 15.863281 C 6.269531 15.871094 6.382812 15.867188 6.496094 15.847656 C 6.609375 15.828125 6.714844 15.792969 6.820312 15.746094 C 6.921875 15.699219 7.019531 15.640625 7.109375 15.570312 C 7.199219 15.5 7.277344 15.421875 7.347656 15.332031 C 7.417969 15.238281 7.472656 15.140625 7.519531 15.039062 C 7.5625 14.933594 7.59375 14.824219 7.609375 14.710938 L 8.554688 14.710938 C 8.578125 15.695312 8.820312 16.617188 9.28125 17.484375 L 7.363281 18.632812 C 7.292969 18.542969 7.210938 18.460938 7.121094 18.390625 C 7.027344 18.324219 6.929688 18.265625 6.824219 18.21875 C 6.71875 18.175781 6.609375 18.144531 6.496094 18.125 C 6.378906 18.109375 6.265625 18.105469 6.152344 18.117188 C 6.039062 18.128906 5.925781 18.152344 5.816406 18.191406 C 5.710938 18.230469 5.609375 18.285156 5.511719 18.347656 C 5.417969 18.410156 5.332031 18.488281 5.253906 18.574219 C 5.179688 18.660156 5.113281 18.753906 5.0625 18.855469 C 5.007812 18.957031 4.96875 19.0625 4.941406 19.175781 C 4.917969 19.289062 4.90625 19.402344 4.90625 19.515625 C 4.910156 19.632812 4.925781 19.746094 4.957031 19.855469 C 4.984375 19.964844 5.03125 20.070312 5.085938 20.171875 C 5.144531 20.273438 5.210938 20.363281 5.292969 20.445312 C 5.371094 20.527344 5.460938 20.601562 5.558594 20.660156 C 5.65625 20.722656 5.757812 20.769531 5.867188 20.804688 C 5.976562 20.839844 6.089844 20.859375 6.207031 20.867188 C 6.320312 20.875 6.433594 20.867188 6.546875 20.84375 C 6.660156 20.824219 6.769531 20.785156 6.871094 20.738281 C 6.976562 20.6875 7.074219 20.628906 7.160156 20.554688 C 7.25 20.480469 7.328125 20.398438 7.398438 20.304688 C 7.464844 20.214844 7.519531 20.113281 7.5625 20.007812 C 7.605469 19.902344 7.636719 19.789062 7.652344 19.675781 C 7.667969 19.5625 7.667969 19.449219 7.65625 19.335938 C 7.644531 19.21875 7.617188 19.109375 7.574219 19 L 9.511719 17.882812 C 10.035156 18.703125 10.703125 19.378906 11.523438 19.902344 L 10.921875 20.945312 C 10.816406 20.90625 10.703125 20.878906 10.59375 20.867188 C 10.480469 20.855469 10.367188 20.855469 10.253906 20.871094 C 10.140625 20.886719 10.03125 20.917969 9.925781 20.960938 C 9.820312 21.003906 9.722656 21.058594 9.628906 21.125 C 9.539062 21.191406 9.457031 21.269531 9.386719 21.359375 C 9.3125 21.445312 9.253906 21.542969 9.203125 21.644531 C 9.15625 21.746094 9.121094 21.855469 9.101562 21.964844 C 9.078125 22.078125 9.070312 22.191406 9.078125 22.304688 C 9.085938 22.417969 9.105469 22.527344 9.140625 22.636719 C 9.171875 22.746094 9.222656 22.847656 9.28125 22.945312 C 9.339844 23.039062 9.410156 23.128906 9.492188 23.207031 C 9.574219 23.285156 9.667969 23.355469 9.765625 23.410156 C 9.863281 23.464844 9.96875 23.507812 10.078125 23.539062 C 10.1875 23.570312 10.300781 23.585938 10.414062 23.589844 C 10.527344 23.589844 10.640625 23.578125 10.75 23.550781 C 10.859375 23.527344 10.964844 23.488281 11.066406 23.433594 C 11.167969 23.382812 11.261719 23.320312 11.347656 23.242188 C 11.429688 23.167969 11.503906 23.082031 11.570312 22.988281 C 11.632812 22.894531 11.683594 22.792969 11.722656 22.6875 C 11.761719 22.582031 11.785156 22.46875 11.796875 22.355469 C 11.808594 22.242188 11.804688 22.132812 11.789062 22.019531 C 11.773438 21.90625 11.742188 21.796875 11.695312 21.691406 C 11.652344 21.589844 11.597656 21.492188 11.527344 21.398438 C 11.457031 21.308594 11.378906 21.226562 11.292969 21.15625 L 11.894531 20.121094 C 12.769531 20.578125 13.707031 20.820312 14.695312 20.84375 L 14.695312 23.082031 C 14.582031 23.097656 14.472656 23.128906 14.371094 23.175781 C 14.265625 23.21875 14.167969 23.277344 14.078125 23.34375 C 13.988281 23.414062 13.90625 23.492188 13.835938 23.582031 C 13.765625 23.671875 13.707031 23.769531 13.660156 23.871094 C 13.613281 23.976562 13.582031 24.082031 13.5625 24.195312 C 13.542969 24.308594 13.535156 24.421875 13.546875 24.535156 C 13.554688 24.648438 13.578125 24.757812 13.613281 24.867188 C 13.648438 24.972656 13.699219 25.074219 13.761719 25.171875 C 13.824219 25.265625 13.894531 25.351562 13.980469 25.429688 C 14.0625 25.507812 14.152344 25.574219 14.253906 25.628906 C 14.355469 25.683594 14.460938 25.722656 14.570312 25.75 C 14.679688 25.78125 14.792969 25.792969 14.90625 25.792969 C 15.019531 25.792969 15.132812 25.78125 15.242188 25.75 C 15.351562 25.722656 15.457031 25.683594 15.558594 25.628906 C 15.65625 25.574219 15.75 25.507812 15.832031 25.429688 C 15.914062 25.351562 15.988281 25.265625 16.050781 25.171875 C 16.113281 25.074219 16.160156 24.972656 16.199219 24.867188 C 16.234375 24.757812 16.257812 24.648438 16.265625 24.535156 C 16.273438 24.421875 16.269531 24.308594 16.25 24.195312 C 16.230469 24.082031 16.199219 23.976562 16.152344 23.871094 C 16.105469 23.769531 16.046875 23.671875 15.976562 23.582031 C 15.90625 23.492188 15.824219 23.414062 15.734375 23.34375 C 15.644531 23.277344 15.546875 23.21875 15.441406 23.175781 C 15.335938 23.128906 15.230469 23.097656 15.117188 23.082031 L 15.117188 20.882812 C 16.050781 20.847656 16.9375 20.621094 17.773438 20.199219 L 18.332031 21.171875 C 18.203125 21.28125 18.097656 21.410156 18.015625 21.558594 C 17.933594 21.710938 17.878906 21.867188 17.855469 22.035156 C 17.835938 22.207031 17.84375 22.371094 17.882812 22.539062 C 17.921875 22.703125 17.988281 22.855469 18.085938 22.996094 C 18.183594 23.136719 18.300781 23.253906 18.441406 23.351562 C 18.582031 23.445312 18.734375 23.515625 18.898438 23.554688 C 19.066406 23.59375 19.230469 23.601562 19.402344 23.578125 C 19.570312 23.554688 19.726562 23.503906 19.878906 23.421875 C 20.035156 23.339844 20.167969 23.230469 20.28125 23.097656 C 20.398438 22.960938 20.480469 22.8125 20.535156 22.644531 C 20.59375 22.476562 20.613281 22.304688 20.605469 22.128906 C 20.59375 21.953125 20.550781 21.785156 20.472656 21.625 C 20.398438 21.464844 20.292969 21.328125 20.164062 21.207031 C 20.035156 21.089844 19.886719 21 19.722656 20.9375 C 19.554688 20.875 19.386719 20.847656 19.210938 20.851562 C 19.03125 20.855469 18.863281 20.890625 18.703125 20.960938 L 18.144531 19.996094 C 19.019531 19.464844 19.734375 18.765625 20.285156 17.898438 L 22.257812 19 C 22.214844 19.109375 22.1875 19.21875 22.175781 19.332031 C 22.160156 19.445312 22.160156 19.558594 22.175781 19.671875 C 22.1875 19.785156 22.21875 19.894531 22.257812 20.003906 C 22.300781 20.109375 22.355469 20.207031 22.421875 20.300781 C 22.488281 20.394531 22.566406 20.476562 22.65625 20.550781 C 22.742188 20.625 22.835938 20.6875 22.941406 20.734375 C 23.042969 20.785156 23.152344 20.820312 23.265625 20.84375 C 23.375 20.867188 23.488281 20.875 23.601562 20.871094 C 23.71875 20.863281 23.828125 20.84375 23.9375 20.8125 C 24.046875 20.777344 24.152344 20.730469 24.25 20.671875 C 24.347656 20.613281 24.4375 20.542969 24.515625 20.460938 C 24.597656 20.378906 24.664062 20.289062 24.722656 20.1875 C 24.78125 20.089844 24.824219 19.984375 24.855469 19.875 C 24.886719 19.765625 24.902344 19.652344 24.90625 19.539062 C 24.910156 19.421875 24.898438 19.3125 24.875 19.199219 C 24.847656 19.085938 24.8125 18.980469 24.757812 18.878906 C 24.707031 18.777344 24.644531 18.683594 24.566406 18.597656 C 24.492188 18.511719 24.40625 18.433594 24.3125 18.371094 C 24.21875 18.304688 24.117188 18.253906 24.011719 18.214844 C 23.902344 18.171875 23.792969 18.148438 23.679688 18.136719 C 23.566406 18.125 23.453125 18.125 23.339844 18.144531 C 23.226562 18.160156 23.117188 18.191406 23.011719 18.234375 C 22.902344 18.277344 22.804688 18.332031 22.714844 18.402344 C 22.621094 18.472656 22.539062 18.550781 22.46875 18.640625 L 20.53125 17.515625 C 20.992188 16.648438 21.234375 15.722656 21.257812 14.742188 L 22.367188 14.742188 C 22.382812 14.855469 22.414062 14.960938 22.460938 15.066406 C 22.503906 15.171875 22.5625 15.269531 22.632812 15.359375 C 22.699219 15.449219 22.78125 15.53125 22.867188 15.601562 C 22.957031 15.671875 23.054688 15.730469 23.160156 15.777344 C 23.261719 15.824219 23.371094 15.855469 23.480469 15.875 C 23.59375 15.894531 23.707031 15.898438 23.820312 15.890625 C 23.933594 15.882812 24.042969 15.859375 24.152344 15.824219 C 24.261719 15.785156 24.363281 15.738281 24.457031 15.675781 C 24.554688 15.613281 24.640625 15.539062 24.714844 15.457031 C 24.792969 15.375 24.859375 15.28125 24.914062 15.183594 C 24.96875 15.082031 25.007812 14.976562 25.039062 14.867188 C 25.066406 14.757812 25.078125 14.644531 25.078125 14.53125 C 25.078125 14.417969 25.066406 14.304688 25.039062 14.195312 C 25.007812 14.085938 24.96875 13.980469 24.914062 13.878906 C 24.859375 13.777344 24.792969 13.6875 24.714844 13.605469 C 24.640625 13.519531 24.554688 13.449219 24.457031 13.386719 C 24.363281 13.324219 24.261719 13.273438 24.152344 13.238281 C 24.042969 13.203125 23.933594 13.179688 23.820312 13.171875 C 23.707031 13.160156 23.59375 13.167969 23.480469 13.1875 C 23.371094 13.207031 23.261719 13.238281 23.160156 13.285156 C 23.054688 13.332031 22.957031 13.390625 22.867188 13.460938 C 22.78125 13.53125 22.699219 13.613281 22.632812 13.703125 C 22.5625 13.792969 22.503906 13.890625 22.460938 13.996094 C 22.414062 14.097656 22.382812 14.207031 22.367188 14.320312 L 21.277344 14.320312 C 21.253906 13.339844 21.011719 12.414062 20.550781 11.546875 L 22.492188 10.429688 C 22.5625 10.519531 22.648438 10.59375 22.738281 10.664062 C 22.832031 10.730469 22.929688 10.785156 23.039062 10.828125 C 23.144531 10.871094 23.253906 10.898438 23.367188 10.914062 C 23.480469 10.929688 23.59375 10.929688 23.707031 10.917969 C 23.820312 10.902344 23.933594 10.875 24.039062 10.835938 C 24.144531 10.792969 24.246094 10.742188 24.339844 10.675781 C 24.433594 10.609375 24.519531 10.535156 24.59375 10.449219 C 24.667969 10.359375 24.730469 10.265625 24.78125 10.164062 C 24.832031 10.0625 24.871094 9.953125 24.894531 9.84375 C 24.921875 9.730469 24.929688 9.617188 24.925781 9.503906 C 24.925781 9.390625 24.90625 9.277344 24.875 9.167969 C 24.84375 9.054688 24.800781 8.953125 24.742188 8.851562 C 24.683594 8.753906 24.613281 8.664062 24.535156 8.582031 C 24.453125 8.5 24.367188 8.429688 24.269531 8.371094 C 24.171875 8.308594 24.066406 8.261719 23.957031 8.230469 C 23.847656 8.195312 23.738281 8.175781 23.621094 8.167969 C 23.507812 8.164062 23.394531 8.171875 23.28125 8.195312 C 23.167969 8.214844 23.0625 8.25 22.957031 8.300781 C 22.855469 8.347656 22.757812 8.410156 22.671875 8.484375 C 22.582031 8.554688 22.503906 8.640625 22.4375 8.730469 C 22.371094 8.824219 22.3125 8.921875 22.269531 9.027344 C 22.226562 9.136719 22.199219 9.246094 22.183594 9.359375 C 22.167969 9.472656 22.167969 9.585938 22.179688 9.699219 C 22.191406 9.8125 22.21875 9.921875 22.257812 10.03125 L 20.320312 11.148438 C 19.789062 10.304688 19.097656 9.621094 18.25 9.09375 L 18.746094 8.238281 C 18.851562 8.277344 18.960938 8.304688 19.074219 8.316406 C 19.1875 8.328125 19.300781 8.328125 19.414062 8.3125 C 19.527344 8.296875 19.632812 8.269531 19.738281 8.226562 C 19.84375 8.183594 19.945312 8.128906 20.035156 8.058594 C 20.125 7.992188 20.207031 7.914062 20.28125 7.828125 C 20.351562 7.738281 20.414062 7.644531 20.460938 7.539062 C 20.511719 7.4375 20.542969 7.332031 20.566406 7.21875 C 20.585938 7.105469 20.59375 6.996094 20.589844 6.878906 C 20.582031 6.765625 20.5625 6.65625 20.527344 6.546875 C 20.492188 6.441406 20.445312 6.335938 20.386719 6.242188 C 20.324219 6.144531 20.253906 6.054688 20.171875 5.976562 C 20.089844 5.898438 20 5.832031 19.902344 5.773438 C 19.800781 5.71875 19.699219 5.675781 19.589844 5.644531 C 19.476562 5.613281 19.367188 5.597656 19.253906 5.597656 C 19.140625 5.59375 19.027344 5.605469 18.917969 5.632812 C 18.804688 5.65625 18.699219 5.695312 18.597656 5.75 C 18.496094 5.800781 18.40625 5.867188 18.320312 5.941406 C 18.234375 6.015625 18.160156 6.101562 18.097656 6.195312 C 18.03125 6.289062 17.980469 6.390625 17.941406 6.496094 C 17.90625 6.605469 17.878906 6.714844 17.867188 6.828125 C 17.855469 6.941406 17.859375 7.054688 17.878906 7.167969 C 17.894531 7.277344 17.925781 7.386719 17.96875 7.492188 C 18.011719 7.597656 18.070312 7.695312 18.136719 7.785156 C 18.207031 7.875 18.285156 7.957031 18.375 8.027344 L 17.902344 8.875 C 17.046875 8.425781 16.140625 8.1875 15.175781 8.152344 L 15.175781 5.914062 C 15.289062 5.898438 15.394531 5.867188 15.5 5.820312 C 15.605469 5.777344 15.707031 5.71875 15.796875 5.648438 C 15.886719 5.582031 15.96875 5.5 16.039062 5.410156 C 16.109375 5.320312 16.167969 5.226562 16.214844 5.121094 C 16.261719 5.015625 16.296875 4.90625 16.316406 4.792969 C 16.335938 4.683594 16.339844 4.566406 16.332031 4.453125 C 16.324219 4.339844 16.300781 4.230469 16.261719 4.121094 C 16.226562 4.011719 16.175781 3.910156 16.113281 3.8125 C 16.050781 3.71875 15.980469 3.632812 15.894531 3.554688 C 15.8125 3.476562 15.71875 3.410156 15.617188 3.355469 C 15.519531 3.300781 15.414062 3.257812 15.300781 3.230469 C 15.191406 3.203125 15.078125 3.1875 14.964844 3.1875 C 14.847656 3.1875 14.738281 3.203125 14.625 3.230469 C 14.515625 3.257812 14.410156 3.300781 14.308594 3.355469 C 14.207031 3.410156 14.117188 3.476562 14.03125 3.554688 C 13.949219 3.632812 13.875 3.71875 13.8125 3.8125 C 13.75 3.910156 13.699219 4.011719 13.664062 4.121094 C 13.628906 4.230469 13.605469 4.339844 13.597656 4.453125 C 13.585938 4.566406 13.59375 4.683594 13.613281 4.792969 C 13.632812 4.90625 13.664062 5.015625 13.710938 5.121094 C 13.757812 5.226562 13.816406 5.320312 13.886719 5.410156 C 13.960938 5.5 14.039062 5.582031 14.132812 5.648438 C 14.222656 5.71875 14.320312 5.777344 14.425781 5.820312 C 14.53125 5.867188 14.640625 5.898438 14.753906 5.914062 L 14.753906 8.152344 C 13.875 8.175781 13.035156 8.378906 12.242188 8.761719 L 11.726562 7.984375 C 11.816406 7.914062 11.894531 7.832031 11.960938 7.738281 C 12.03125 7.648438 12.085938 7.550781 12.128906 7.445312 C 12.171875 7.339844 12.203125 7.230469 12.21875 7.117188 C 12.234375 7.007812 12.238281 6.894531 12.226562 6.78125 C 12.214844 6.667969 12.1875 6.558594 12.148438 6.449219 C 12.109375 6.34375 12.058594 6.242188 11.992188 6.148438 C 11.929688 6.054688 11.851562 5.972656 11.765625 5.894531 C 11.683594 5.820312 11.589844 5.757812 11.488281 5.707031 C 11.386719 5.65625 11.277344 5.617188 11.167969 5.589844 C 11.058594 5.566406 10.945312 5.554688 10.832031 5.558594 C 10.71875 5.5625 10.605469 5.578125 10.496094 5.609375 C 10.386719 5.640625 10.28125 5.683594 10.183594 5.742188 C 10.085938 5.800781 9.996094 5.867188 9.914062 5.949219 C 9.832031 6.027344 9.761719 6.117188 9.703125 6.210938 C 9.644531 6.308594 9.597656 6.414062 9.566406 6.523438 C 9.53125 6.628906 9.511719 6.742188 9.503906 6.855469 C 9.5 6.96875 9.507812 7.082031 9.53125 7.191406 C 9.554688 7.304688 9.589844 7.410156 9.640625 7.515625 C 9.6875 7.617188 9.75 7.710938 9.824219 7.800781 C 9.894531 7.886719 9.980469 7.964844 10.070312 8.03125 C 10.164062 8.097656 10.261719 8.152344 10.367188 8.191406 C 10.472656 8.234375 10.582031 8.261719 10.695312 8.277344 C 10.808594 8.289062 10.921875 8.289062 11.035156 8.277344 C 11.148438 8.261719 11.257812 8.234375 11.363281 8.195312 L 11.804688 8.964844 C 10.855469 9.496094 10.09375 10.21875 9.511719 11.140625 L 7.574219 10.03125 C 7.695312 9.71875 7.703125 9.40625 7.597656 9.089844 C 7.492188 8.773438 7.300781 8.527344 7.015625 8.355469 C 6.859375 8.261719 6.691406 8.207031 6.511719 8.183594 C 6.332031 8.160156 6.15625 8.171875 5.980469 8.21875 C 5.804688 8.265625 5.644531 8.34375 5.5 8.453125 C 5.359375 8.5625 5.242188 8.699219 5.152344 8.855469 C 5.058594 9.011719 5.003906 9.179688 4.980469 9.359375 C 4.957031 9.539062 4.96875 9.714844 5.015625 9.890625 C 5.0625 10.066406 5.140625 10.226562 5.25 10.367188 C 5.359375 10.511719 5.496094 10.628906 5.652344 10.71875 Z M 7.175781 14.726562 C 7.140625 14.878906 7.074219 15.015625 6.972656 15.132812 C 6.867188 15.25 6.746094 15.335938 6.601562 15.394531 C 6.457031 15.453125 6.304688 15.472656 6.148438 15.453125 C 5.996094 15.4375 5.851562 15.382812 5.722656 15.296875 C 5.59375 15.207031 5.496094 15.09375 5.421875 14.957031 C 5.347656 14.820312 5.3125 14.671875 5.3125 14.515625 C 5.3125 14.359375 5.347656 14.214844 5.421875 14.074219 C 5.496094 13.9375 5.59375 13.824219 5.722656 13.738281 C 5.851562 13.648438 5.996094 13.597656 6.148438 13.578125 C 6.304688 13.5625 6.457031 13.582031 6.601562 13.636719 C 6.746094 13.695312 6.867188 13.78125 6.972656 13.898438 C 7.074219 14.019531 7.140625 14.152344 7.175781 14.304688 C 7.214844 14.445312 7.214844 14.585938 7.175781 14.726562 Z M 6.769531 20.324219 C 6.554688 20.441406 6.324219 20.472656 6.085938 20.414062 C 5.84375 20.355469 5.65625 20.222656 5.523438 20.015625 C 5.386719 19.808594 5.339844 19.582031 5.378906 19.339844 C 5.421875 19.097656 5.539062 18.898438 5.738281 18.75 C 5.933594 18.597656 6.15625 18.535156 6.402344 18.558594 C 6.648438 18.582031 6.851562 18.6875 7.015625 18.871094 C 7.066406 18.921875 7.113281 18.980469 7.148438 19.046875 C 7.183594 19.105469 7.207031 19.171875 7.226562 19.242188 C 7.285156 19.453125 7.273438 19.660156 7.1875 19.863281 C 7.101562 20.066406 6.964844 20.21875 6.769531 20.324219 Z M 11.253906 22.71875 C 11.132812 22.933594 10.953125 23.074219 10.714844 23.148438 C 10.480469 23.222656 10.25 23.203125 10.027344 23.097656 C 9.804688 22.988281 9.648438 22.820312 9.558594 22.589844 C 9.46875 22.359375 9.46875 22.128906 9.558594 21.902344 C 9.648438 21.671875 9.808594 21.503906 10.03125 21.394531 C 10.253906 21.289062 10.480469 21.273438 10.71875 21.347656 C 10.785156 21.363281 10.847656 21.386719 10.90625 21.425781 C 10.96875 21.460938 11.027344 21.503906 11.082031 21.554688 C 11.238281 21.703125 11.332031 21.886719 11.363281 22.101562 C 11.398438 22.3125 11.359375 22.515625 11.253906 22.703125 Z M 18.757812 21.410156 C 18.816406 21.375 18.882812 21.347656 18.949219 21.332031 C 19.164062 21.257812 19.382812 21.261719 19.597656 21.34375 C 19.808594 21.429688 19.972656 21.570312 20.082031 21.773438 C 20.207031 21.988281 20.242188 22.214844 20.1875 22.457031 C 20.132812 22.699219 20.003906 22.890625 19.800781 23.03125 C 19.597656 23.171875 19.371094 23.222656 19.125 23.183594 C 18.882812 23.148438 18.683594 23.03125 18.527344 22.839844 C 18.375 22.644531 18.308594 22.425781 18.328125 22.179688 C 18.34375 21.929688 18.445312 21.722656 18.628906 21.554688 C 18.667969 21.503906 18.710938 21.453125 18.757812 21.410156 Z M 22.636719 19.234375 C 22.65625 19.164062 22.683594 19.097656 22.722656 19.039062 C 22.757812 18.976562 22.800781 18.917969 22.847656 18.863281 C 22.953125 18.746094 23.078125 18.664062 23.226562 18.609375 C 23.375 18.558594 23.527344 18.542969 23.683594 18.566406 C 23.839844 18.589844 23.980469 18.644531 24.105469 18.738281 C 24.234375 18.832031 24.332031 18.949219 24.398438 19.089844 C 24.46875 19.230469 24.5 19.378906 24.496094 19.535156 C 24.492188 19.695312 24.449219 19.839844 24.371094 19.976562 C 24.296875 20.113281 24.191406 20.222656 24.058594 20.308594 C 23.925781 20.394531 23.78125 20.441406 23.625 20.453125 C 23.46875 20.46875 23.316406 20.441406 23.171875 20.382812 C 23.027344 20.320312 22.90625 20.226562 22.808594 20.105469 C 22.707031 19.984375 22.644531 19.84375 22.613281 19.691406 C 22.582031 19.535156 22.589844 19.382812 22.636719 19.234375 Z M 22.824219 14.320312 C 22.859375 14.167969 22.925781 14.03125 23.027344 13.914062 C 23.132812 13.796875 23.253906 13.710938 23.398438 13.652344 C 23.542969 13.59375 23.695312 13.574219 23.851562 13.59375 C 24.003906 13.609375 24.148438 13.664062 24.277344 13.75 C 24.40625 13.839844 24.503906 13.953125 24.578125 14.089844 C 24.652344 14.226562 24.6875 14.375 24.6875 14.53125 C 24.6875 14.6875 24.652344 14.832031 24.578125 14.972656 C 24.503906 15.109375 24.40625 15.222656 24.277344 15.308594 C 24.148438 15.398438 24.003906 15.449219 23.851562 15.46875 C 23.695312 15.484375 23.542969 15.464844 23.398438 15.410156 C 23.253906 15.351562 23.132812 15.265625 23.027344 15.144531 C 22.925781 15.027344 22.859375 14.894531 22.824219 14.742188 C 22.785156 14.601562 22.785156 14.460938 22.824219 14.320312 Z M 23.0625 8.710938 C 23.277344 8.585938 23.503906 8.546875 23.746094 8.601562 C 23.988281 8.65625 24.179688 8.785156 24.320312 8.988281 C 24.460938 9.195312 24.511719 9.417969 24.472656 9.664062 C 24.4375 9.910156 24.324219 10.109375 24.128906 10.261719 C 23.933594 10.417969 23.714844 10.484375 23.46875 10.464844 C 23.21875 10.445312 23.011719 10.34375 22.847656 10.160156 C 22.800781 10.105469 22.757812 10.050781 22.722656 9.988281 C 22.683594 9.925781 22.65625 9.859375 22.636719 9.792969 C 22.574219 9.582031 22.582031 9.378906 22.664062 9.175781 C 22.742188 8.976562 22.875 8.820312 23.0625 8.710938 Z M 18.410156 6.488281 C 18.472656 6.378906 18.554688 6.285156 18.65625 6.203125 C 18.753906 6.125 18.867188 6.070312 18.988281 6.035156 C 19.113281 6.003906 19.234375 5.992188 19.363281 6.007812 C 19.488281 6.023438 19.605469 6.0625 19.71875 6.125 C 19.828125 6.1875 19.921875 6.269531 20 6.371094 C 20.078125 6.46875 20.136719 6.582031 20.171875 6.703125 C 20.203125 6.824219 20.214844 6.949219 20.199219 7.078125 C 20.183594 7.203125 20.144531 7.320312 20.082031 7.433594 C 19.96875 7.621094 19.8125 7.757812 19.605469 7.835938 C 19.402344 7.917969 19.195312 7.925781 18.984375 7.859375 C 18.917969 7.839844 18.855469 7.808594 18.796875 7.773438 C 18.734375 7.738281 18.675781 7.695312 18.621094 7.648438 C 18.453125 7.503906 18.351562 7.324219 18.3125 7.105469 C 18.273438 6.890625 18.304688 6.683594 18.410156 6.488281 Z M 11.371094 7.738281 L 11.175781 7.824219 C 11.023438 7.871094 10.871094 7.878906 10.71875 7.851562 C 10.5625 7.824219 10.425781 7.757812 10.300781 7.660156 C 10.175781 7.5625 10.085938 7.445312 10.019531 7.300781 C 9.957031 7.15625 9.929688 7.003906 9.941406 6.847656 C 9.953125 6.691406 10 6.546875 10.085938 6.414062 C 10.167969 6.28125 10.277344 6.171875 10.414062 6.09375 C 10.550781 6.015625 10.695312 5.972656 10.855469 5.964844 C 11.011719 5.960938 11.160156 5.992188 11.300781 6.058594 C 11.445312 6.128906 11.5625 6.226562 11.65625 6.351562 C 11.75 6.476562 11.808594 6.617188 11.832031 6.773438 C 11.855469 6.929688 11.839844 7.082031 11.789062 7.230469 C 11.738281 7.378906 11.652344 7.507812 11.539062 7.613281 C 11.488281 7.660156 11.429688 7.703125 11.371094 7.738281 Z M 15.894531 24.46875 C 15.898438 24.71875 15.8125 24.933594 15.644531 25.121094 C 15.476562 25.304688 15.269531 25.410156 15.019531 25.429688 C 14.769531 25.449219 14.546875 25.382812 14.351562 25.226562 C 14.15625 25.070312 14.039062 24.871094 14 24.621094 C 13.964844 24.375 14.015625 24.148438 14.160156 23.941406 C 14.300781 23.734375 14.496094 23.605469 14.738281 23.550781 C 14.808594 23.542969 14.878906 23.542969 14.949219 23.550781 C 15.019531 23.546875 15.089844 23.546875 15.160156 23.550781 C 15.367188 23.605469 15.535156 23.71875 15.667969 23.890625 C 15.800781 24.058594 15.863281 24.253906 15.863281 24.46875 Z M 13.96875 4.566406 C 13.957031 4.433594 13.972656 4.304688 14.015625 4.175781 C 14.058594 4.050781 14.125 3.9375 14.214844 3.839844 C 14.304688 3.742188 14.410156 3.664062 14.535156 3.613281 C 14.65625 3.558594 14.785156 3.53125 14.917969 3.53125 C 15.050781 3.53125 15.175781 3.558594 15.300781 3.613281 C 15.421875 3.664062 15.527344 3.742188 15.617188 3.839844 C 15.707031 3.9375 15.773438 4.050781 15.816406 4.175781 C 15.859375 4.304688 15.875 4.433594 15.863281 4.566406 C 15.863281 4.785156 15.792969 4.976562 15.660156 5.148438 C 15.523438 5.320312 15.351562 5.429688 15.136719 5.480469 C 15.066406 5.488281 14.996094 5.488281 14.925781 5.480469 C 14.855469 5.488281 14.785156 5.488281 14.71875 5.480469 C 14.5 5.433594 14.324219 5.324219 14.183594 5.152344 C 14.042969 4.984375 13.972656 4.785156 13.96875 4.566406 Z M 9.570312 11.917969 L 9.992188 11.191406 C 10.523438 10.417969 11.195312 9.796875 12.007812 9.332031 L 12.371094 9.144531 C 13.046875 8.832031 13.75 8.648438 14.492188 8.59375 L 15.339844 8.59375 C 16.164062 8.648438 16.941406 8.867188 17.671875 9.253906 L 18.027344 9.457031 C 18.753906 9.90625 19.359375 10.484375 19.839844 11.191406 L 20.269531 11.917969 C 20.640625 12.671875 20.839844 13.472656 20.863281 14.3125 C 20.875 14.449219 20.875 14.582031 20.863281 14.71875 C 20.839844 15.5625 20.640625 16.359375 20.269531 17.113281 L 19.847656 17.839844 C 19.347656 18.5625 18.71875 19.148438 17.960938 19.597656 L 17.605469 19.792969 C 16.894531 20.15625 16.136719 20.363281 15.339844 20.417969 L 14.492188 20.417969 C 13.644531 20.347656 12.847656 20.105469 12.105469 19.691406 C 11.984375 19.625 11.867188 19.558594 11.753906 19.480469 C 11.058594 19.054688 10.46875 18.511719 9.992188 17.847656 L 9.570312 17.121094 C 9.199219 16.367188 9 15.566406 8.976562 14.726562 L 8.976562 14.320312 C 9 13.476562 9.199219 12.675781 9.570312 11.917969 Z M 5.476562 9.066406 C 5.539062 8.957031 5.621094 8.863281 5.71875 8.785156 C 5.816406 8.707031 5.929688 8.652344 6.050781 8.617188 C 6.171875 8.585938 6.292969 8.574219 6.417969 8.59375 C 6.542969 8.609375 6.660156 8.648438 6.769531 8.710938 C 6.960938 8.820312 7.09375 8.976562 7.175781 9.179688 C 7.253906 9.382812 7.261719 9.589844 7.199219 9.796875 C 7.179688 9.867188 7.152344 9.933594 7.117188 9.996094 C 7.089844 10.054688 7.058594 10.109375 7.015625 10.160156 C 6.863281 10.375 6.660156 10.5 6.402344 10.542969 C 6.144531 10.589844 5.910156 10.535156 5.699219 10.382812 C 5.488281 10.230469 5.359375 10.027344 5.316406 9.769531 C 5.273438 9.511719 5.324219 9.277344 5.476562 9.066406 Z M 5.476562 9.066406 " clip-rule="nonzero"/></clipPath><linearGradient x1="-88.559534" gradientTransform="matrix(-0.152419, 0, 0, -0.152419, 11.581451, 16.911291)" y1="16" x2="43.845228" gradientUnits="userSpaceOnUse" y2="16" id="f644781b3d"><stop stop-opacity="1" stop-color="rgb(7.798767%, 16.107178%, 31.706238%)" offset="0"/><stop stop-opacity="1" stop-color="rgb(7.78656%, 16.230774%, 31.806946%)" offset="0.0078125"/><stop stop-opacity="1" stop-color="rgb(7.762146%, 16.481018%, 32.008362%)" offset="0.015625"/><stop stop-opacity="1" stop-color="rgb(7.739258%, 16.729736%, 32.209778%)" offset="0.0234375"/><stop stop-opacity="1" stop-color="rgb(7.714844%, 16.97998%, 32.411194%)" offset="0.03125"/><stop stop-opacity="1" stop-color="rgb(7.69043%, 17.228699%, 32.61261%)" offset="0.0390625"/><stop stop-opacity="1" stop-color="rgb(7.667542%, 17.478943%, 32.814026%)" offset="0.046875"/><stop stop-opacity="1" stop-color="rgb(7.643127%, 17.727661%, 33.015442%)" offset="0.0546875"/><stop stop-opacity="1" stop-color="rgb(7.618713%, 17.977905%, 33.216858%)" offset="0.0625"/><stop stop-opacity="1" stop-color="rgb(7.594299%, 18.226624%, 33.418274%)" offset="0.0703125"/><stop stop-opacity="1" stop-color="rgb(7.571411%, 18.476868%, 33.61969%)" offset="0.078125"/><stop stop-opacity="1" stop-color="rgb(7.546997%, 18.725586%, 33.821106%)" offset="0.0859375"/><stop stop-opacity="1" stop-color="rgb(7.522583%, 18.97583%, 34.022522%)" offset="0.09375"/><stop stop-opacity="1" stop-color="rgb(7.499695%, 19.224548%, 34.223938%)" offset="0.101562"/><stop stop-opacity="1" stop-color="rgb(7.475281%, 19.474792%, 34.425354%)" offset="0.109375"/><stop stop-opacity="1" stop-color="rgb(7.450867%, 19.723511%, 34.62677%)" offset="0.117187"/><stop stop-opacity="1" stop-color="rgb(7.426453%, 19.973755%, 34.828186%)" offset="0.125"/><stop stop-opacity="1" stop-color="rgb(7.403564%, 20.222473%, 35.029602%)" offset="0.132812"/><stop stop-opacity="1" stop-color="rgb(7.37915%, 20.472717%, 35.231018%)" offset="0.140625"/><stop stop-opacity="1" stop-color="rgb(7.354736%, 20.721436%, 35.432434%)" offset="0.148437"/><stop stop-opacity="1" stop-color="rgb(7.330322%, 20.97168%, 35.63385%)" offset="0.15625"/><stop stop-opacity="1" stop-color="rgb(7.307434%, 21.220398%, 35.835266%)" offset="0.164062"/><stop stop-opacity="1" stop-color="rgb(7.28302%, 21.470642%, 36.036682%)" offset="0.171875"/><stop stop-opacity="1" stop-color="rgb(7.258606%, 21.71936%, 36.238098%)" offset="0.179688"/><stop stop-opacity="1" stop-color="rgb(7.235718%, 21.969604%, 36.439514%)" offset="0.1875"/><stop stop-opacity="1" stop-color="rgb(7.211304%, 22.218323%, 36.64093%)" offset="0.195312"/><stop stop-opacity="1" stop-color="rgb(7.18689%, 22.468567%, 36.842346%)" offset="0.203125"/><stop stop-opacity="1" stop-color="rgb(7.162476%, 22.717285%, 37.043762%)" offset="0.210938"/><stop stop-opacity="1" stop-color="rgb(7.139587%, 22.967529%, 37.245178%)" offset="0.21875"/><stop stop-opacity="1" stop-color="rgb(7.115173%, 23.216248%, 37.446594%)" offset="0.226563"/><stop stop-opacity="1" stop-color="rgb(7.090759%, 23.466492%, 37.64801%)" offset="0.234375"/><stop stop-opacity="1" stop-color="rgb(7.067871%, 23.71521%, 37.849426%)" offset="0.242188"/><stop stop-opacity="1" stop-color="rgb(7.043457%, 23.965454%, 38.050842%)" offset="0.25"/><stop stop-opacity="1" stop-color="rgb(7.019043%, 24.214172%, 38.252258%)" offset="0.257812"/><stop stop-opacity="1" stop-color="rgb(6.994629%, 24.464417%, 38.453674%)" offset="0.265625"/><stop stop-opacity="1" stop-color="rgb(6.971741%, 24.713135%, 38.65509%)" offset="0.273438"/><stop stop-opacity="1" stop-color="rgb(6.947327%, 24.963379%, 38.856506%)" offset="0.28125"/><stop stop-opacity="1" stop-color="rgb(6.922913%, 25.212097%, 39.057922%)" offset="0.289063"/><stop stop-opacity="1" stop-color="rgb(6.900024%, 25.462341%, 39.259338%)" offset="0.296875"/><stop stop-opacity="1" stop-color="rgb(6.87561%, 25.71106%, 39.460754%)" offset="0.304688"/><stop stop-opacity="1" stop-color="rgb(6.851196%, 25.961304%, 39.66217%)" offset="0.3125"/><stop stop-opacity="1" stop-color="rgb(6.826782%, 26.210022%, 39.863586%)" offset="0.320313"/><stop stop-opacity="1" stop-color="rgb(6.803894%, 26.460266%, 40.065002%)" offset="0.328125"/><stop stop-opacity="1" stop-color="rgb(6.77948%, 26.708984%, 40.266418%)" offset="0.335938"/><stop stop-opacity="1" stop-color="rgb(6.755066%, 26.959229%, 40.467834%)" offset="0.34375"/><stop stop-opacity="1" stop-color="rgb(6.730652%, 27.207947%, 40.66925%)" offset="0.351562"/><stop stop-opacity="1" stop-color="rgb(6.707764%, 27.458191%, 40.870667%)" offset="0.359375"/><stop stop-opacity="1" stop-color="rgb(6.68335%, 27.706909%, 41.072083%)" offset="0.367188"/><stop stop-opacity="1" stop-color="rgb(6.658936%, 27.957153%, 41.273499%)" offset="0.375"/><stop stop-opacity="1" stop-color="rgb(6.636047%, 28.205872%, 41.474915%)" offset="0.382813"/><stop stop-opacity="1" stop-color="rgb(6.611633%, 28.456116%, 41.676331%)" offset="0.390625"/><stop stop-opacity="1" stop-color="rgb(6.587219%, 28.704834%, 41.877747%)" offset="0.398438"/><stop stop-opacity="1" stop-color="rgb(6.562805%, 28.955078%, 42.079163%)" offset="0.40625"/><stop stop-opacity="1" stop-color="rgb(6.539917%, 29.203796%, 42.280579%)" offset="0.414062"/><stop stop-opacity="1" stop-color="rgb(6.515503%, 29.454041%, 42.481995%)" offset="0.421875"/><stop stop-opacity="1" stop-color="rgb(6.491089%, 29.702759%, 42.683411%)" offset="0.429688"/><stop stop-opacity="1" stop-color="rgb(6.468201%, 29.953003%, 42.884827%)" offset="0.4375"/><stop stop-opacity="1" stop-color="rgb(6.443787%, 30.201721%, 43.086243%)" offset="0.445313"/><stop stop-opacity="1" stop-color="rgb(6.419373%, 30.451965%, 43.287659%)" offset="0.453125"/><stop stop-opacity="1" stop-color="rgb(6.394958%, 30.700684%, 43.489075%)" offset="0.460938"/><stop stop-opacity="1" stop-color="rgb(6.37207%, 30.950928%, 43.690491%)" offset="0.46875"/><stop stop-opacity="1" stop-color="rgb(6.347656%, 31.199646%, 43.891907%)" offset="0.476562"/><stop stop-opacity="1" stop-color="rgb(6.323242%, 31.44989%, 44.093323%)" offset="0.484375"/><stop stop-opacity="1" stop-color="rgb(6.298828%, 31.698608%, 44.294739%)" offset="0.492188"/><stop stop-opacity="1" stop-color="rgb(6.27594%, 31.948853%, 44.496155%)" offset="0.5"/><stop stop-opacity="1" stop-color="rgb(6.251526%, 32.197571%, 44.697571%)" offset="0.507812"/><stop stop-opacity="1" stop-color="rgb(6.227112%, 32.447815%, 44.898987%)" offset="0.515625"/><stop stop-opacity="1" stop-color="rgb(6.204224%, 32.696533%, 45.100403%)" offset="0.523438"/><stop stop-opacity="1" stop-color="rgb(6.17981%, 32.946777%, 45.301819%)" offset="0.53125"/><stop stop-opacity="1" stop-color="rgb(6.155396%, 33.195496%, 45.503235%)" offset="0.539062"/><stop stop-opacity="1" stop-color="rgb(6.130981%, 33.44574%, 45.704651%)" offset="0.546875"/><stop stop-opacity="1" stop-color="rgb(6.108093%, 33.694458%, 45.906067%)" offset="0.554687"/><stop stop-opacity="1" stop-color="rgb(6.083679%, 33.944702%, 46.107483%)" offset="0.5625"/><stop stop-opacity="1" stop-color="rgb(6.059265%, 34.19342%, 46.308899%)" offset="0.570312"/><stop stop-opacity="1" stop-color="rgb(6.036377%, 34.443665%, 46.510315%)" offset="0.578125"/><stop stop-opacity="1" stop-color="rgb(6.011963%, 34.692383%, 46.711731%)" offset="0.585937"/><stop stop-opacity="1" stop-color="rgb(5.987549%, 34.942627%, 46.913147%)" offset="0.59375"/><stop stop-opacity="1" stop-color="rgb(5.963135%, 35.191345%, 47.114563%)" offset="0.601562"/><stop stop-opacity="1" stop-color="rgb(5.940247%, 35.441589%, 47.315979%)" offset="0.609375"/><stop stop-opacity="1" stop-color="rgb(5.915833%, 35.690308%, 47.517395%)" offset="0.617187"/><stop stop-opacity="1" stop-color="rgb(5.891418%, 35.940552%, 47.718811%)" offset="0.625"/><stop stop-opacity="1" stop-color="rgb(5.867004%, 36.18927%, 47.920227%)" offset="0.632812"/><stop stop-opacity="1" stop-color="rgb(5.844116%, 36.439514%, 48.121643%)" offset="0.640625"/><stop stop-opacity="1" stop-color="rgb(5.819702%, 36.688232%, 48.323059%)" offset="0.648437"/><stop stop-opacity="1" stop-color="rgb(5.795288%, 36.938477%, 48.524475%)" offset="0.65625"/><stop stop-opacity="1" stop-color="rgb(5.7724%, 37.187195%, 48.725891%)" offset="0.664062"/><stop stop-opacity="1" stop-color="rgb(5.747986%, 37.437439%, 48.927307%)" offset="0.671875"/><stop stop-opacity="1" stop-color="rgb(5.723572%, 37.686157%, 49.128723%)" offset="0.679688"/><stop stop-opacity="1" stop-color="rgb(5.699158%, 37.936401%, 49.331665%)" offset="0.6875"/><stop stop-opacity="1" stop-color="rgb(5.67627%, 38.18512%, 49.533081%)" offset="0.695312"/><stop stop-opacity="1" stop-color="rgb(5.651855%, 38.435364%, 49.734497%)" offset="0.703125"/><stop stop-opacity="1" stop-color="rgb(5.627441%, 38.684082%, 49.935913%)" offset="0.710938"/><stop stop-opacity="1" stop-color="rgb(5.604553%, 38.934326%, 50.137329%)" offset="0.71875"/><stop stop-opacity="1" stop-color="rgb(5.580139%, 39.183044%, 50.338745%)" offset="0.726562"/><stop stop-opacity="1" stop-color="rgb(5.555725%, 39.433289%, 50.540161%)" offset="0.734375"/><stop stop-opacity="1" stop-color="rgb(5.531311%, 39.682007%, 50.741577%)" offset="0.742188"/><stop stop-opacity="1" stop-color="rgb(5.508423%, 39.932251%, 50.942993%)" offset="0.75"/><stop stop-opacity="1" stop-color="rgb(5.484009%, 40.180969%, 51.144409%)" offset="0.757812"/><stop stop-opacity="1" stop-color="rgb(5.459595%, 40.431213%, 51.345825%)" offset="0.765625"/><stop stop-opacity="1" stop-color="rgb(5.435181%, 40.679932%, 51.547241%)" offset="0.773437"/><stop stop-opacity="1" stop-color="rgb(5.412292%, 40.930176%, 51.748657%)" offset="0.78125"/><stop stop-opacity="1" stop-color="rgb(5.387878%, 41.178894%, 51.950073%)" offset="0.789062"/><stop stop-opacity="1" stop-color="rgb(5.363464%, 41.429138%, 52.151489%)" offset="0.796875"/><stop stop-opacity="1" stop-color="rgb(5.340576%, 41.677856%, 52.352905%)" offset="0.804687"/><stop stop-opacity="1" stop-color="rgb(5.316162%, 41.928101%, 52.554321%)" offset="0.8125"/><stop stop-opacity="1" stop-color="rgb(5.291748%, 42.176819%, 52.755737%)" offset="0.820312"/><stop stop-opacity="1" stop-color="rgb(5.267334%, 42.427063%, 52.957153%)" offset="0.828125"/><stop stop-opacity="1" stop-color="rgb(5.244446%, 42.675781%, 53.158569%)" offset="0.835938"/><stop stop-opacity="1" stop-color="rgb(5.220032%, 42.926025%, 53.359985%)" offset="0.84375"/><stop stop-opacity="1" stop-color="rgb(5.195618%, 43.174744%, 53.561401%)" offset="0.851562"/><stop stop-opacity="1" stop-color="rgb(5.172729%, 43.424988%, 53.762817%)" offset="0.859375"/><stop stop-opacity="1" stop-color="rgb(5.148315%, 43.673706%, 53.964233%)" offset="0.867188"/><stop stop-opacity="1" stop-color="rgb(5.123901%, 43.92395%, 54.165649%)" offset="0.875"/><stop stop-opacity="1" stop-color="rgb(5.099487%, 44.172668%, 54.367065%)" offset="0.882812"/><stop stop-opacity="1" stop-color="rgb(5.076599%, 44.422913%, 54.568481%)" offset="0.890625"/><stop stop-opacity="1" stop-color="rgb(5.052185%, 44.671631%, 54.769897%)" offset="0.898438"/><stop stop-opacity="1" stop-color="rgb(5.027771%, 44.921875%, 54.971313%)" offset="0.90625"/><stop stop-opacity="1" stop-color="rgb(5.003357%, 45.170593%, 55.172729%)" offset="0.914063"/><stop stop-opacity="1" stop-color="rgb(4.980469%, 45.420837%, 55.374146%)" offset="0.921875"/><stop stop-opacity="1" stop-color="rgb(4.956055%, 45.669556%, 55.575562%)" offset="0.929688"/><stop stop-opacity="1" stop-color="rgb(4.931641%, 45.9198%, 55.776978%)" offset="0.9375"/><stop stop-opacity="1" stop-color="rgb(4.908752%, 46.168518%, 55.978394%)" offset="0.945312"/><stop stop-opacity="1" stop-color="rgb(4.884338%, 46.418762%, 56.17981%)" offset="0.953125"/><stop stop-opacity="1" stop-color="rgb(4.859924%, 46.66748%, 56.381226%)" offset="0.960937"/><stop stop-opacity="1" stop-color="rgb(4.83551%, 46.917725%, 56.582642%)" offset="0.96875"/><stop stop-opacity="1" stop-color="rgb(4.812622%, 47.166443%, 56.784058%)" offset="0.976562"/><stop stop-opacity="1" stop-color="rgb(4.788208%, 47.416687%, 56.985474%)" offset="0.984375"/><stop stop-opacity="1" stop-color="rgb(4.763794%, 47.665405%, 57.18689%)" offset="0.992188"/><stop stop-opacity="1" stop-color="rgb(4.740906%, 47.915649%, 57.388306%)" offset="1"/></linearGradient><linearGradient x1="-88.559534" gradientTransform="matrix(-0.152419, 0, 0, -0.152419, 11.581451, 16.911291)" y1="16" x2="43.845228" gradientUnits="userSpaceOnUse" y2="16" id="1885364027"><stop stop-opacity="1" stop-color="rgb(7.798767%, 16.107178%, 31.706238%)" offset="0"/><stop stop-opacity="1" stop-color="rgb(7.78656%, 16.230774%, 31.806946%)" offset="0.0078125"/><stop stop-opacity="1" stop-color="rgb(7.762146%, 16.481018%, 32.008362%)" offset="0.015625"/><stop stop-opacity="1" stop-color="rgb(7.739258%, 16.729736%, 32.209778%)" offset="0.0234375"/><stop stop-opacity="1" stop-color="rgb(7.714844%, 16.97998%, 32.411194%)" offset="0.03125"/><stop stop-opacity="1" stop-color="rgb(7.69043%, 17.228699%, 32.61261%)" offset="0.0390625"/><stop stop-opacity="1" stop-color="rgb(7.667542%, 17.478943%, 32.814026%)" offset="0.046875"/><stop stop-opacity="1" stop-color="rgb(7.643127%, 17.727661%, 33.015442%)" offset="0.0546875"/><stop stop-opacity="1" stop-color="rgb(7.618713%, 17.977905%, 33.216858%)" offset="0.0625"/><stop stop-opacity="1" stop-color="rgb(7.594299%, 18.226624%, 33.418274%)" offset="0.0703125"/><stop stop-opacity="1" stop-color="rgb(7.571411%, 18.476868%, 33.61969%)" offset="0.078125"/><stop stop-opacity="1" stop-color="rgb(7.546997%, 18.725586%, 33.821106%)" offset="0.0859375"/><stop stop-opacity="1" stop-color="rgb(7.522583%, 18.97583%, 34.022522%)" offset="0.09375"/><stop stop-opacity="1" stop-color="rgb(7.499695%, 19.224548%, 34.223938%)" offset="0.101562"/><stop stop-opacity="1" stop-color="rgb(7.475281%, 19.474792%, 34.425354%)" offset="0.109375"/><stop stop-opacity="1" stop-color="rgb(7.450867%, 19.723511%, 34.62677%)" offset="0.117187"/><stop stop-opacity="1" stop-color="rgb(7.426453%, 19.973755%, 34.828186%)" offset="0.125"/><stop stop-opacity="1" stop-color="rgb(7.403564%, 20.222473%, 35.029602%)" offset="0.132812"/><stop stop-opacity="1" stop-color="rgb(7.37915%, 20.472717%, 35.231018%)" offset="0.140625"/><stop stop-opacity="1" stop-color="rgb(7.354736%, 20.721436%, 35.432434%)" offset="0.148437"/><stop stop-opacity="1" stop-color="rgb(7.330322%, 20.97168%, 35.63385%)" offset="0.15625"/><stop stop-opacity="1" stop-color="rgb(7.307434%, 21.220398%, 35.835266%)" offset="0.164062"/><stop stop-opacity="1" stop-color="rgb(7.28302%, 21.470642%, 36.036682%)" offset="0.171875"/><stop stop-opacity="1" stop-color="rgb(7.258606%, 21.71936%, 36.238098%)" offset="0.179688"/><stop stop-opacity="1" stop-color="rgb(7.235718%, 21.969604%, 36.439514%)" offset="0.1875"/><stop stop-opacity="1" stop-color="rgb(7.211304%, 22.218323%, 36.64093%)" offset="0.195312"/><stop stop-opacity="1" stop-color="rgb(7.18689%, 22.468567%, 36.842346%)" offset="0.203125"/><stop stop-opacity="1" stop-color="rgb(7.162476%, 22.717285%, 37.043762%)" offset="0.210938"/><stop stop-opacity="1" stop-color="rgb(7.139587%, 22.967529%, 37.245178%)" offset="0.21875"/><stop stop-opacity="1" stop-color="rgb(7.115173%, 23.216248%, 37.446594%)" offset="0.226563"/><stop stop-opacity="1" stop-color="rgb(7.090759%, 23.466492%, 37.64801%)" offset="0.234375"/><stop stop-opacity="1" stop-color="rgb(7.067871%, 23.71521%, 37.849426%)" offset="0.242188"/><stop stop-opacity="1" stop-color="rgb(7.043457%, 23.965454%, 38.050842%)" offset="0.25"/><stop stop-opacity="1" stop-color="rgb(7.019043%, 24.214172%, 38.252258%)" offset="0.257812"/><stop stop-opacity="1" stop-color="rgb(6.994629%, 24.464417%, 38.453674%)" offset="0.265625"/><stop stop-opacity="1" stop-color="rgb(6.971741%, 24.713135%, 38.65509%)" offset="0.273438"/><stop stop-opacity="1" stop-color="rgb(6.947327%, 24.963379%, 38.856506%)" offset="0.28125"/><stop stop-opacity="1" stop-color="rgb(6.922913%, 25.212097%, 39.057922%)" offset="0.289063"/><stop stop-opacity="1" stop-color="rgb(6.900024%, 25.462341%, 39.259338%)" offset="0.296875"/><stop stop-opacity="1" stop-color="rgb(6.87561%, 25.71106%, 39.460754%)" offset="0.304688"/><stop stop-opacity="1" stop-color="rgb(6.851196%, 25.961304%, 39.66217%)" offset="0.3125"/><stop stop-opacity="1" stop-color="rgb(6.826782%, 26.210022%, 39.863586%)" offset="0.320313"/><stop stop-opacity="1" stop-color="rgb(6.803894%, 26.460266%, 40.065002%)" offset="0.328125"/><stop stop-opacity="1" stop-color="rgb(6.77948%, 26.708984%, 40.266418%)" offset="0.335938"/><stop stop-opacity="1" stop-color="rgb(6.755066%, 26.959229%, 40.467834%)" offset="0.34375"/><stop stop-opacity="1" stop-color="rgb(6.730652%, 27.207947%, 40.66925%)" offset="0.351562"/><stop stop-opacity="1" stop-color="rgb(6.707764%, 27.458191%, 40.870667%)" offset="0.359375"/><stop stop-opacity="1" stop-color="rgb(6.68335%, 27.706909%, 41.072083%)" offset="0.367188"/><stop stop-opacity="1" stop-color="rgb(6.658936%, 27.957153%, 41.273499%)" offset="0.375"/><stop stop-opacity="1" stop-color="rgb(6.636047%, 28.205872%, 41.474915%)" offset="0.382813"/><stop stop-opacity="1" stop-color="rgb(6.611633%, 28.456116%, 41.676331%)" offset="0.390625"/><stop stop-opacity="1" stop-color="rgb(6.587219%, 28.704834%, 41.877747%)" offset="0.398438"/><stop stop-opacity="1" stop-color="rgb(6.562805%, 28.955078%, 42.079163%)" offset="0.40625"/><stop stop-opacity="1" stop-color="rgb(6.539917%, 29.203796%, 42.280579%)" offset="0.414062"/><stop stop-opacity="1" stop-color="rgb(6.515503%, 29.454041%, 42.481995%)" offset="0.421875"/><stop stop-opacity="1" stop-color="rgb(6.491089%, 29.702759%, 42.683411%)" offset="0.429688"/><stop stop-opacity="1" stop-color="rgb(6.468201%, 29.953003%, 42.884827%)" offset="0.4375"/><stop stop-opacity="1" stop-color="rgb(6.443787%, 30.201721%, 43.086243%)" offset="0.445313"/><stop stop-opacity="1" stop-color="rgb(6.419373%, 30.451965%, 43.287659%)" offset="0.453125"/><stop stop-opacity="1" stop-color="rgb(6.394958%, 30.700684%, 43.489075%)" offset="0.460938"/><stop stop-opacity="1" stop-color="rgb(6.37207%, 30.950928%, 43.690491%)" offset="0.46875"/><stop stop-opacity="1" stop-color="rgb(6.347656%, 31.199646%, 43.891907%)" offset="0.476562"/><stop stop-opacity="1" stop-color="rgb(6.323242%, 31.44989%, 44.093323%)" offset="0.484375"/><stop stop-opacity="1" stop-color="rgb(6.298828%, 31.698608%, 44.294739%)" offset="0.492188"/><stop stop-opacity="1" stop-color="rgb(6.27594%, 31.948853%, 44.496155%)" offset="0.5"/><stop stop-opacity="1" stop-color="rgb(6.251526%, 32.197571%, 44.697571%)" offset="0.507812"/><stop stop-opacity="1" stop-color="rgb(6.227112%, 32.447815%, 44.898987%)" offset="0.515625"/><stop stop-opacity="1" stop-color="rgb(6.204224%, 32.696533%, 45.100403%)" offset="0.523438"/><stop stop-opacity="1" stop-color="rgb(6.17981%, 32.946777%, 45.301819%)" offset="0.53125"/><stop stop-opacity="1" stop-color="rgb(6.155396%, 33.195496%, 45.503235%)" offset="0.539062"/><stop stop-opacity="1" stop-color="rgb(6.130981%, 33.44574%, 45.704651%)" offset="0.546875"/><stop stop-opacity="1" stop-color="rgb(6.108093%, 33.694458%, 45.906067%)" offset="0.554687"/><stop stop-opacity="1" stop-color="rgb(6.083679%, 33.944702%, 46.107483%)" offset="0.5625"/><stop stop-opacity="1" stop-color="rgb(6.059265%, 34.19342%, 46.308899%)" offset="0.570312"/><stop stop-opacity="1" stop-color="rgb(6.036377%, 34.443665%, 46.510315%)" offset="0.578125"/><stop stop-opacity="1" stop-color="rgb(6.011963%, 34.692383%, 46.711731%)" offset="0.585937"/><stop stop-opacity="1" stop-color="rgb(5.987549%, 34.942627%, 46.913147%)" offset="0.59375"/><stop stop-opacity="1" stop-color="rgb(5.963135%, 35.191345%, 47.114563%)" offset="0.601562"/><stop stop-opacity="1" stop-color="rgb(5.940247%, 35.441589%, 47.315979%)" offset="0.609375"/><stop stop-opacity="1" stop-color="rgb(5.915833%, 35.690308%, 47.517395%)" offset="0.617187"/><stop stop-opacity="1" stop-color="rgb(5.891418%, 35.940552%, 47.718811%)" offset="0.625"/><stop stop-opacity="1" stop-color="rgb(5.867004%, 36.18927%, 47.920227%)" offset="0.632812"/><stop stop-opacity="1" stop-color="rgb(5.844116%, 36.439514%, 48.121643%)" offset="0.640625"/><stop stop-opacity="1" stop-color="rgb(5.819702%, 36.688232%, 48.323059%)" offset="0.648437"/><stop stop-opacity="1" stop-color="rgb(5.795288%, 36.938477%, 48.524475%)" offset="0.65625"/><stop stop-opacity="1" stop-color="rgb(5.7724%, 37.187195%, 48.725891%)" offset="0.664062"/><stop stop-opacity="1" stop-color="rgb(5.747986%, 37.437439%, 48.927307%)" offset="0.671875"/><stop stop-opacity="1" stop-color="rgb(5.723572%, 37.686157%, 49.128723%)" offset="0.679688"/><stop stop-opacity="1" stop-color="rgb(5.699158%, 37.936401%, 49.331665%)" offset="0.6875"/><stop stop-opacity="1" stop-color="rgb(5.67627%, 38.18512%, 49.533081%)" offset="0.695312"/><stop stop-opacity="1" stop-color="rgb(5.651855%, 38.435364%, 49.734497%)" offset="0.703125"/><stop stop-opacity="1" stop-color="rgb(5.627441%, 38.684082%, 49.935913%)" offset="0.710938"/><stop stop-opacity="1" stop-color="rgb(5.604553%, 38.934326%, 50.137329%)" offset="0.71875"/><stop stop-opacity="1" stop-color="rgb(5.580139%, 39.183044%, 50.338745%)" offset="0.726562"/><stop stop-opacity="1" stop-color="rgb(5.555725%, 39.433289%, 50.540161%)" offset="0.734375"/><stop stop-opacity="1" stop-color="rgb(5.531311%, 39.682007%, 50.741577%)" offset="0.742188"/><stop stop-opacity="1" stop-color="rgb(5.508423%, 39.932251%, 50.942993%)" offset="0.75"/><stop stop-opacity="1" stop-color="rgb(5.484009%, 40.180969%, 51.144409%)" offset="0.757812"/><stop stop-opacity="1" stop-color="rgb(5.459595%, 40.431213%, 51.345825%)" offset="0.765625"/><stop stop-opacity="1" stop-color="rgb(5.435181%, 40.679932%, 51.547241%)" offset="0.773437"/><stop stop-opacity="1" stop-color="rgb(5.412292%, 40.930176%, 51.748657%)" offset="0.78125"/><stop stop-opacity="1" stop-color="rgb(5.387878%, 41.178894%, 51.950073%)" offset="0.789062"/><stop stop-opacity="1" stop-color="rgb(5.363464%, 41.429138%, 52.151489%)" offset="0.796875"/><stop stop-opacity="1" stop-color="rgb(5.340576%, 41.677856%, 52.352905%)" offset="0.804687"/><stop stop-opacity="1" stop-color="rgb(5.316162%, 41.928101%, 52.554321%)" offset="0.8125"/><stop stop-opacity="1" stop-color="rgb(5.291748%, 42.176819%, 52.755737%)" offset="0.820312"/><stop stop-opacity="1" stop-color="rgb(5.267334%, 42.427063%, 52.957153%)" offset="0.828125"/><stop stop-opacity="1" stop-color="rgb(5.244446%, 42.675781%, 53.158569%)" offset="0.835938"/><stop stop-opacity="1" stop-color="rgb(5.220032%, 42.926025%, 53.359985%)" offset="0.84375"/><stop stop-opacity="1" stop-color="rgb(5.195618%, 43.174744%, 53.561401%)" offset="0.851562"/><stop stop-opacity="1" stop-color="rgb(5.172729%, 43.424988%, 53.762817%)" offset="0.859375"/><stop stop-opacity="1" stop-color="rgb(5.148315%, 43.673706%, 53.964233%)" offset="0.867188"/><stop stop-opacity="1" stop-color="rgb(5.123901%, 43.92395%, 54.165649%)" offset="0.875"/><stop stop-opacity="1" stop-color="rgb(5.099487%, 44.172668%, 54.367065%)" offset="0.882812"/><stop stop-opacity="1" stop-color="rgb(5.076599%, 44.422913%, 54.568481%)" offset="0.890625"/><stop stop-opacity="1" stop-color="rgb(5.052185%, 44.671631%, 54.769897%)" offset="0.898438"/><stop stop-opacity="1" stop-color="rgb(5.027771%, 44.921875%, 54.971313%)" offset="0.90625"/><stop stop-opacity="1" stop-color="rgb(5.003357%, 45.170593%, 55.172729%)" offset="0.914063"/><stop stop-opacity="1" stop-color="rgb(4.980469%, 45.420837%, 55.374146%)" offset="0.921875"/><stop stop-opacity="1" stop-color="rgb(4.956055%, 45.669556%, 55.575562%)" offset="0.929688"/><stop stop-opacity="1" stop-color="rgb(4.931641%, 45.9198%, 55.776978%)" offset="0.9375"/><stop stop-opacity="1" stop-color="rgb(4.908752%, 46.168518%, 55.978394%)" offset="0.945312"/><stop stop-opacity="1" stop-color="rgb(4.884338%, 46.418762%, 56.17981%)" offset="0.953125"/><stop stop-opacity="1" stop-color="rgb(4.859924%, 46.66748%, 56.381226%)" offset="0.960937"/><stop stop-opacity="1" stop-color="rgb(4.83551%, 46.917725%, 56.582642%)" offset="0.96875"/><stop stop-opacity="1" stop-color="rgb(4.812622%, 47.166443%, 56.784058%)" offset="0.976562"/><stop stop-opacity="1" stop-color="rgb(4.788208%, 47.416687%, 56.985474%)" offset="0.984375"/><stop stop-opacity="1" stop-color="rgb(4.763794%, 47.665405%, 57.18689%)" offset="0.992188"/><stop stop-opacity="1" stop-color="rgb(4.740906%, 47.915649%, 57.388306%)" offset="1"/></linearGradient><clipPath id="cebaacff8c"><path d="M 10 9 L 20 9 L 20 20 L 10 20 Z M 10 9 " clip-rule="nonzero"/></clipPath><clipPath id="eb75d20c5c"><path d="M 14.921875 19.320312 C 15.234375 19.320312 15.546875 19.289062 15.859375 19.230469 C 16.167969 19.167969 16.46875 19.074219 16.757812 18.957031 C 17.050781 18.835938 17.328125 18.6875 17.589844 18.511719 C 17.851562 18.335938 18.09375 18.136719 18.316406 17.914062 C 18.539062 17.691406 18.738281 17.449219 18.914062 17.1875 C 19.089844 16.921875 19.238281 16.644531 19.359375 16.355469 C 19.480469 16.0625 19.570312 15.761719 19.632812 15.453125 C 19.695312 15.144531 19.726562 14.832031 19.726562 14.515625 C 19.726562 14.199219 19.695312 13.886719 19.632812 13.578125 C 19.570312 13.269531 19.480469 12.96875 19.359375 12.675781 C 19.238281 12.386719 19.089844 12.109375 18.914062 11.847656 C 18.738281 11.585938 18.539062 11.339844 18.316406 11.117188 C 18.09375 10.894531 17.851562 10.695312 17.589844 10.519531 C 17.328125 10.347656 17.050781 10.199219 16.757812 10.078125 C 16.46875 9.957031 16.167969 9.863281 15.859375 9.804688 C 15.546875 9.742188 15.234375 9.710938 14.921875 9.710938 C 14.605469 9.710938 14.292969 9.742188 13.984375 9.804688 C 13.671875 9.863281 13.371094 9.957031 13.082031 10.078125 C 12.789062 10.199219 12.511719 10.347656 12.25 10.519531 C 11.988281 10.695312 11.746094 10.894531 11.523438 11.117188 C 11.300781 11.339844 11.101562 11.585938 10.925781 11.847656 C 10.75 12.109375 10.601562 12.386719 10.480469 12.675781 C 10.359375 12.96875 10.269531 13.269531 10.207031 13.578125 C 10.144531 13.886719 10.117188 14.199219 10.117188 14.515625 C 10.117188 14.832031 10.144531 15.144531 10.207031 15.453125 C 10.269531 15.761719 10.359375 16.0625 10.480469 16.355469 C 10.601562 16.644531 10.75 16.921875 10.925781 17.1875 C 11.101562 17.449219 11.300781 17.691406 11.523438 17.914062 C 11.746094 18.136719 11.988281 18.335938 12.25 18.511719 C 12.511719 18.6875 12.789062 18.835938 13.082031 18.957031 C 13.371094 19.074219 13.671875 19.167969 13.984375 19.230469 C 14.292969 19.289062 14.605469 19.320312 14.921875 19.320312 Z M 15.035156 12.511719 C 15.300781 12.511719 15.558594 12.5625 15.800781 12.664062 C 16.046875 12.765625 16.265625 12.914062 16.453125 13.101562 C 16.640625 13.289062 16.785156 13.503906 16.886719 13.75 C 16.988281 13.996094 17.039062 14.25 17.039062 14.515625 C 17.039062 14.78125 16.988281 15.035156 16.886719 15.28125 C 16.785156 15.527344 16.640625 15.746094 16.453125 15.933594 C 16.265625 16.121094 16.046875 16.265625 15.800781 16.367188 C 15.558594 16.46875 15.300781 16.519531 15.035156 16.519531 Z M 15.035156 16.917969 C 15.355469 16.917969 15.660156 16.859375 15.957031 16.734375 C 16.25 16.613281 16.511719 16.441406 16.734375 16.214844 C 16.960938 15.988281 17.132812 15.730469 17.253906 15.433594 C 17.378906 15.140625 17.4375 14.835938 17.4375 14.515625 C 17.4375 14.199219 17.378906 13.890625 17.253906 13.597656 C 17.132812 13.300781 16.960938 13.042969 16.734375 12.816406 C 16.511719 12.59375 16.25 12.417969 15.957031 12.296875 C 15.660156 12.175781 15.355469 12.113281 15.035156 12.113281 L 15.035156 10.945312 C 15.113281 10.941406 15.15625 10.976562 15.167969 11.054688 L 15.167969 11.191406 C 15.191406 11.351562 15.28125 11.449219 15.441406 11.480469 C 15.589844 11.507812 15.734375 11.546875 15.878906 11.597656 C 16.039062 11.65625 16.167969 11.617188 16.269531 11.480469 L 16.351562 11.378906 C 16.40625 11.335938 16.464844 11.335938 16.523438 11.378906 L 16.785156 11.53125 C 16.851562 11.574219 16.871094 11.628906 16.84375 11.699219 L 16.792969 11.824219 C 16.726562 11.976562 16.757812 12.109375 16.886719 12.214844 C 17 12.316406 17.105469 12.421875 17.207031 12.535156 C 17.316406 12.660156 17.445312 12.691406 17.597656 12.628906 L 17.722656 12.578125 C 17.792969 12.550781 17.847656 12.570312 17.890625 12.636719 L 18.035156 12.898438 C 18.085938 12.953125 18.085938 13.007812 18.035156 13.066406 L 17.925781 13.152344 C 17.796875 13.253906 17.757812 13.382812 17.816406 13.535156 C 17.859375 13.679688 17.902344 13.828125 17.933594 13.972656 C 17.960938 14.136719 18.058594 14.230469 18.222656 14.253906 L 18.351562 14.253906 C 18.429688 14.261719 18.46875 14.308594 18.46875 14.386719 L 18.46875 14.691406 C 18.46875 14.769531 18.429688 14.8125 18.351562 14.820312 L 18.222656 14.820312 C 18.058594 14.839844 17.960938 14.933594 17.933594 15.097656 C 17.933594 15.242188 17.859375 15.386719 17.816406 15.53125 C 17.757812 15.6875 17.796875 15.816406 17.925781 15.917969 L 18.035156 16.003906 C 18.085938 16.058594 18.085938 16.117188 18.035156 16.171875 L 17.890625 16.433594 C 17.847656 16.5 17.792969 16.515625 17.722656 16.492188 L 17.597656 16.441406 C 17.445312 16.378906 17.316406 16.410156 17.207031 16.535156 C 17.105469 16.644531 17 16.753906 16.886719 16.851562 C 16.757812 16.960938 16.726562 17.089844 16.792969 17.246094 L 16.84375 17.367188 C 16.871094 17.441406 16.851562 17.496094 16.785156 17.535156 L 16.523438 17.6875 C 16.457031 17.722656 16.398438 17.707031 16.351562 17.652344 L 16.269531 17.550781 C 16.167969 17.414062 16.039062 17.375 15.878906 17.433594 C 15.734375 17.484375 15.589844 17.523438 15.441406 17.550781 C 15.28125 17.582031 15.191406 17.679688 15.167969 17.839844 L 15.167969 17.976562 C 15.15625 18.054688 15.113281 18.09375 15.035156 18.085938 Z M 14.796875 13.550781 L 14.195312 13.550781 C 14.167969 13.441406 14.097656 13.386719 13.984375 13.390625 C 13.832031 13.390625 13.757812 13.464844 13.757812 13.617188 C 13.757812 13.765625 13.832031 13.839844 13.984375 13.839844 C 14.097656 13.84375 14.167969 13.792969 14.195312 13.679688 L 14.796875 13.679688 L 14.796875 14.449219 L 13.851562 14.449219 C 13.832031 14.378906 13.78125 14.328125 13.710938 14.304688 C 13.636719 14.277344 13.570312 14.289062 13.507812 14.332031 C 13.445312 14.378906 13.414062 14.4375 13.414062 14.515625 C 13.414062 14.59375 13.445312 14.652344 13.507812 14.699219 C 13.570312 14.742188 13.636719 14.753906 13.710938 14.730469 C 13.78125 14.703125 13.832031 14.65625 13.851562 14.582031 L 14.796875 14.582031 L 14.796875 15.351562 L 14.195312 15.351562 C 14.167969 15.242188 14.097656 15.1875 13.984375 15.191406 C 13.832031 15.191406 13.757812 15.265625 13.757812 15.417969 C 13.757812 15.566406 13.832031 15.640625 13.984375 15.640625 C 14.097656 15.644531 14.167969 15.589844 14.195312 15.480469 L 14.796875 15.480469 L 14.796875 16.519531 C 14.53125 16.519531 14.277344 16.46875 14.03125 16.367188 C 13.785156 16.265625 13.566406 16.121094 13.378906 15.933594 C 13.191406 15.746094 13.046875 15.527344 12.945312 15.28125 C 12.84375 15.039062 12.792969 14.78125 12.792969 14.515625 C 12.792969 14.25 12.84375 13.996094 12.945312 13.75 C 13.046875 13.503906 13.191406 13.289062 13.378906 13.101562 C 13.566406 12.910156 13.785156 12.765625 14.03125 12.664062 C 14.277344 12.5625 14.53125 12.511719 14.796875 12.511719 Z M 11.457031 14.234375 L 11.589844 14.234375 C 11.753906 14.207031 11.855469 14.113281 11.886719 13.949219 C 11.914062 13.800781 11.953125 13.65625 12.003906 13.515625 C 12.050781 13.359375 12.011719 13.230469 11.886719 13.128906 L 11.777344 13.066406 C 11.726562 13.007812 11.726562 12.953125 11.777344 12.898438 L 11.929688 12.636719 C 11.964844 12.570312 12.019531 12.550781 12.089844 12.578125 L 12.21875 12.628906 C 12.375 12.691406 12.503906 12.660156 12.613281 12.535156 C 12.710938 12.417969 12.816406 12.3125 12.929688 12.214844 C 13.054688 12.105469 13.085938 11.976562 13.027344 11.824219 L 12.976562 11.699219 C 12.941406 11.628906 12.957031 11.574219 13.027344 11.53125 L 13.285156 11.378906 C 13.34375 11.335938 13.402344 11.335938 13.460938 11.378906 L 13.546875 11.480469 C 13.648438 11.617188 13.777344 11.65625 13.933594 11.597656 C 14.074219 11.546875 14.21875 11.507812 14.367188 11.480469 C 14.527344 11.449219 14.621094 11.351562 14.644531 11.191406 L 14.644531 11.054688 C 14.652344 10.976562 14.695312 10.941406 14.773438 10.945312 L 14.773438 12.113281 C 14.457031 12.113281 14.148438 12.175781 13.855469 12.296875 C 13.5625 12.417969 13.300781 12.59375 13.078125 12.816406 C 12.851562 13.042969 12.679688 13.304688 12.554688 13.597656 C 12.433594 13.890625 12.375 14.199219 12.375 14.515625 C 12.375 14.835938 12.433594 15.140625 12.554688 15.433594 C 12.679688 15.730469 12.851562 15.988281 13.078125 16.214844 C 13.300781 16.441406 13.5625 16.613281 13.855469 16.734375 C 14.148438 16.855469 14.457031 16.917969 14.773438 16.917969 L 14.773438 18.085938 C 14.695312 18.09375 14.652344 18.054688 14.644531 17.976562 L 14.644531 17.839844 C 14.621094 17.679688 14.527344 17.582031 14.367188 17.550781 C 14.21875 17.523438 14.074219 17.484375 13.933594 17.433594 C 13.777344 17.375 13.648438 17.414062 13.546875 17.550781 L 13.460938 17.652344 C 13.414062 17.707031 13.355469 17.722656 13.285156 17.6875 L 13.027344 17.535156 C 12.957031 17.496094 12.941406 17.4375 12.976562 17.367188 L 13.027344 17.246094 C 13.085938 17.09375 13.054688 16.960938 12.929688 16.851562 C 12.816406 16.753906 12.710938 16.648438 12.613281 16.535156 C 12.503906 16.410156 12.375 16.378906 12.21875 16.441406 L 12.089844 16.492188 C 12.019531 16.515625 11.964844 16.496094 11.929688 16.433594 L 11.777344 16.171875 C 11.726562 16.117188 11.726562 16.058594 11.777344 16.003906 L 11.886719 15.917969 C 12.011719 15.816406 12.050781 15.6875 12.003906 15.53125 C 11.953125 15.390625 11.914062 15.246094 11.886719 15.097656 C 11.855469 14.929688 11.757812 14.839844 11.589844 14.820312 L 11.457031 14.820312 C 11.378906 14.8125 11.339844 14.769531 11.34375 14.691406 L 11.34375 14.386719 C 11.324219 14.292969 11.363281 14.242188 11.457031 14.234375 Z M 15.277344 12.78125 L 15.277344 13.542969 L 15.640625 13.542969 C 15.660156 13.46875 15.707031 13.421875 15.78125 13.394531 C 15.855469 13.371094 15.921875 13.382812 15.984375 13.425781 C 16.046875 13.472656 16.078125 13.53125 16.078125 13.609375 C 16.078125 13.6875 16.046875 13.746094 15.984375 13.792969 C 15.921875 13.835938 15.855469 13.847656 15.78125 13.820312 C 15.707031 13.796875 15.660156 13.746094 15.640625 13.675781 L 15.277344 13.675781 L 15.277344 14.445312 L 16 14.445312 C 16.023438 14.371094 16.070312 14.320312 16.144531 14.296875 C 16.21875 14.269531 16.285156 14.28125 16.347656 14.324219 C 16.410156 14.371094 16.441406 14.433594 16.441406 14.507812 C 16.441406 14.585938 16.410156 14.648438 16.347656 14.691406 C 16.285156 14.738281 16.21875 14.746094 16.144531 14.722656 C 16.070312 14.695312 16.023438 14.648438 16 14.574219 L 15.277344 14.574219 L 15.277344 15.34375 L 15.640625 15.34375 C 15.660156 15.269531 15.707031 15.21875 15.78125 15.195312 C 15.855469 15.171875 15.921875 15.179688 15.984375 15.226562 C 16.046875 15.269531 16.078125 15.332031 16.078125 15.410156 C 16.078125 15.484375 16.046875 15.546875 15.984375 15.589844 C 15.921875 15.636719 15.855469 15.648438 15.78125 15.621094 C 15.707031 15.597656 15.660156 15.546875 15.640625 15.472656 L 15.277344 15.472656 L 15.277344 16.234375 C 15.6875 16.152344 16.023438 15.949219 16.285156 15.625 C 16.550781 15.296875 16.683594 14.925781 16.683594 14.507812 C 16.683594 14.089844 16.550781 13.71875 16.285156 13.394531 C 16.023438 13.070312 15.6875 12.867188 15.277344 12.78125 Z M 15.277344 12.78125 " clip-rule="nonzero"/></clipPath><linearGradient x1="-53.428568" gradientTransform="matrix(-0.152419, 0, 0, -0.152419, 11.581451, 16.911291)" y1="16" x2="9.619051" gradientUnits="userSpaceOnUse" y2="16" id="88c778cbdb"><stop stop-opacity="1" stop-color="rgb(7.794189%, 16.151428%, 31.742859%)" offset="0"/><stop stop-opacity="1" stop-color="rgb(7.781982%, 16.27655%, 31.843567%)" offset="0.0078125"/><stop stop-opacity="1" stop-color="rgb(7.759094%, 16.526794%, 32.044983%)" offset="0.015625"/><stop stop-opacity="1" stop-color="rgb(7.73468%, 16.775513%, 32.246399%)" offset="0.0234375"/><stop stop-opacity="1" stop-color="rgb(7.710266%, 17.025757%, 32.447815%)" offset="0.03125"/><stop stop-opacity="1" stop-color="rgb(7.685852%, 17.276001%, 32.650757%)" offset="0.0390625"/><stop stop-opacity="1" stop-color="rgb(7.662964%, 17.526245%, 32.852173%)" offset="0.046875"/><stop stop-opacity="1" stop-color="rgb(7.63855%, 17.774963%, 33.053589%)" offset="0.0546875"/><stop stop-opacity="1" stop-color="rgb(7.614136%, 18.025208%, 33.255005%)" offset="0.0625"/><stop stop-opacity="1" stop-color="rgb(7.589722%, 18.275452%, 33.457947%)" offset="0.0703125"/><stop stop-opacity="1" stop-color="rgb(7.566833%, 18.525696%, 33.659363%)" offset="0.078125"/><stop stop-opacity="1" stop-color="rgb(7.542419%, 18.77594%, 33.860779%)" offset="0.0859375"/><stop stop-opacity="1" stop-color="rgb(7.518005%, 19.024658%, 34.062195%)" offset="0.09375"/><stop stop-opacity="1" stop-color="rgb(7.493591%, 19.274902%, 34.263611%)" offset="0.101563"/><stop stop-opacity="1" stop-color="rgb(7.470703%, 19.525146%, 34.466553%)" offset="0.109375"/><stop stop-opacity="1" stop-color="rgb(7.446289%, 19.775391%, 34.667969%)" offset="0.117188"/><stop stop-opacity="1" stop-color="rgb(7.421875%, 20.024109%, 34.869385%)" offset="0.125"/><stop stop-opacity="1" stop-color="rgb(7.397461%, 20.274353%, 35.070801%)" offset="0.132813"/><stop stop-opacity="1" stop-color="rgb(7.374573%, 20.524597%, 35.273743%)" offset="0.140625"/><stop stop-opacity="1" stop-color="rgb(7.350159%, 20.774841%, 35.475159%)" offset="0.148438"/><stop stop-opacity="1" stop-color="rgb(7.325745%, 21.02356%, 35.676575%)" offset="0.15625"/><stop stop-opacity="1" stop-color="rgb(7.301331%, 21.273804%, 35.877991%)" offset="0.164062"/><stop stop-opacity="1" stop-color="rgb(7.278442%, 21.524048%, 36.079407%)" offset="0.171875"/><stop stop-opacity="1" stop-color="rgb(7.254028%, 21.774292%, 36.282349%)" offset="0.179688"/><stop stop-opacity="1" stop-color="rgb(7.229614%, 22.024536%, 36.483765%)" offset="0.1875"/><stop stop-opacity="1" stop-color="rgb(7.2052%, 22.273254%, 36.685181%)" offset="0.195312"/><stop stop-opacity="1" stop-color="rgb(7.182312%, 22.523499%, 36.886597%)" offset="0.203125"/><stop stop-opacity="1" stop-color="rgb(7.157898%, 22.773743%, 37.089539%)" offset="0.210938"/><stop stop-opacity="1" stop-color="rgb(7.133484%, 23.023987%, 37.290955%)" offset="0.21875"/><stop stop-opacity="1" stop-color="rgb(7.10907%, 23.272705%, 37.492371%)" offset="0.226562"/><stop stop-opacity="1" stop-color="rgb(7.086182%, 23.522949%, 37.693787%)" offset="0.234375"/><stop stop-opacity="1" stop-color="rgb(7.061768%, 23.773193%, 37.895203%)" offset="0.242188"/><stop stop-opacity="1" stop-color="rgb(7.037354%, 24.023438%, 38.098145%)" offset="0.25"/><stop stop-opacity="1" stop-color="rgb(7.012939%, 24.272156%, 38.299561%)" offset="0.257812"/><stop stop-opacity="1" stop-color="rgb(6.990051%, 24.5224%, 38.500977%)" offset="0.265625"/><stop stop-opacity="1" stop-color="rgb(6.965637%, 24.772644%, 38.702393%)" offset="0.273438"/><stop stop-opacity="1" stop-color="rgb(6.941223%, 25.022888%, 38.905334%)" offset="0.28125"/><stop stop-opacity="1" stop-color="rgb(6.916809%, 25.271606%, 39.10675%)" offset="0.289062"/><stop stop-opacity="1" stop-color="rgb(6.893921%, 25.521851%, 39.308167%)" offset="0.296875"/><stop stop-opacity="1" stop-color="rgb(6.869507%, 25.772095%, 39.509583%)" offset="0.304687"/><stop stop-opacity="1" stop-color="rgb(6.845093%, 26.022339%, 39.710999%)" offset="0.3125"/><stop stop-opacity="1" stop-color="rgb(6.820679%, 26.272583%, 39.91394%)" offset="0.320312"/><stop stop-opacity="1" stop-color="rgb(6.797791%, 26.521301%, 40.115356%)" offset="0.328125"/><stop stop-opacity="1" stop-color="rgb(6.773376%, 26.771545%, 40.316772%)" offset="0.335937"/><stop stop-opacity="1" stop-color="rgb(6.748962%, 27.02179%, 40.518188%)" offset="0.34375"/><stop stop-opacity="1" stop-color="rgb(6.724548%, 27.272034%, 40.72113%)" offset="0.351562"/><stop stop-opacity="1" stop-color="rgb(6.70166%, 27.520752%, 40.922546%)" offset="0.359375"/><stop stop-opacity="1" stop-color="rgb(6.677246%, 27.770996%, 41.123962%)" offset="0.367187"/><stop stop-opacity="1" stop-color="rgb(6.652832%, 28.02124%, 41.325378%)" offset="0.375"/><stop stop-opacity="1" stop-color="rgb(6.628418%, 28.271484%, 41.526794%)" offset="0.382812"/><stop stop-opacity="1" stop-color="rgb(6.60553%, 28.520203%, 41.729736%)" offset="0.390625"/><stop stop-opacity="1" stop-color="rgb(6.581116%, 28.770447%, 41.931152%)" offset="0.398438"/><stop stop-opacity="1" stop-color="rgb(6.556702%, 29.020691%, 42.132568%)" offset="0.40625"/><stop stop-opacity="1" stop-color="rgb(6.532288%, 29.270935%, 42.333984%)" offset="0.414062"/><stop stop-opacity="1" stop-color="rgb(6.509399%, 29.521179%, 42.536926%)" offset="0.421875"/><stop stop-opacity="1" stop-color="rgb(6.484985%, 29.769897%, 42.738342%)" offset="0.429687"/><stop stop-opacity="1" stop-color="rgb(6.460571%, 30.020142%, 42.939758%)" offset="0.4375"/><stop stop-opacity="1" stop-color="rgb(6.437683%, 30.270386%, 43.141174%)" offset="0.445312"/><stop stop-opacity="1" stop-color="rgb(6.413269%, 30.52063%, 43.34259%)" offset="0.453125"/><stop stop-opacity="1" stop-color="rgb(6.388855%, 30.769348%, 43.545532%)" offset="0.460937"/><stop stop-opacity="1" stop-color="rgb(6.364441%, 31.019592%, 43.746948%)" offset="0.46875"/><stop stop-opacity="1" stop-color="rgb(6.341553%, 31.269836%, 43.948364%)" offset="0.476562"/><stop stop-opacity="1" stop-color="rgb(6.317139%, 31.520081%, 44.14978%)" offset="0.484375"/><stop stop-opacity="1" stop-color="rgb(6.292725%, 31.768799%, 44.351196%)" offset="0.492187"/><stop stop-opacity="1" stop-color="rgb(6.268311%, 32.019043%, 44.554138%)" offset="0.5"/><stop stop-opacity="1" stop-color="rgb(6.245422%, 32.269287%, 44.755554%)" offset="0.507812"/><stop stop-opacity="1" stop-color="rgb(6.221008%, 32.519531%, 44.95697%)" offset="0.515625"/><stop stop-opacity="1" stop-color="rgb(6.196594%, 32.76825%, 45.158386%)" offset="0.523438"/><stop stop-opacity="1" stop-color="rgb(6.17218%, 33.018494%, 45.361328%)" offset="0.53125"/><stop stop-opacity="1" stop-color="rgb(6.149292%, 33.268738%, 45.562744%)" offset="0.539062"/><stop stop-opacity="1" stop-color="rgb(6.124878%, 33.518982%, 45.76416%)" offset="0.546875"/><stop stop-opacity="1" stop-color="rgb(6.100464%, 33.769226%, 45.965576%)" offset="0.554688"/><stop stop-opacity="1" stop-color="rgb(6.07605%, 34.017944%, 46.166992%)" offset="0.5625"/><stop stop-opacity="1" stop-color="rgb(6.053162%, 34.268188%, 46.369934%)" offset="0.570312"/><stop stop-opacity="1" stop-color="rgb(6.028748%, 34.518433%, 46.57135%)" offset="0.578125"/><stop stop-opacity="1" stop-color="rgb(6.004333%, 34.768677%, 46.772766%)" offset="0.585938"/><stop stop-opacity="1" stop-color="rgb(5.979919%, 35.017395%, 46.974182%)" offset="0.59375"/><stop stop-opacity="1" stop-color="rgb(5.957031%, 35.267639%, 47.177124%)" offset="0.601562"/><stop stop-opacity="1" stop-color="rgb(5.932617%, 35.517883%, 47.37854%)" offset="0.609375"/><stop stop-opacity="1" stop-color="rgb(5.908203%, 35.768127%, 47.579956%)" offset="0.617187"/><stop stop-opacity="1" stop-color="rgb(5.883789%, 36.016846%, 47.781372%)" offset="0.625"/><stop stop-opacity="1" stop-color="rgb(5.860901%, 36.26709%, 47.982788%)" offset="0.632812"/><stop stop-opacity="1" stop-color="rgb(5.836487%, 36.517334%, 48.18573%)" offset="0.640625"/><stop stop-opacity="1" stop-color="rgb(5.812073%, 36.767578%, 48.387146%)" offset="0.648437"/><stop stop-opacity="1" stop-color="rgb(5.787659%, 37.017822%, 48.588562%)" offset="0.65625"/><stop stop-opacity="1" stop-color="rgb(5.764771%, 37.266541%, 48.789978%)" offset="0.664062"/><stop stop-opacity="1" stop-color="rgb(5.740356%, 37.516785%, 48.99292%)" offset="0.671875"/><stop stop-opacity="1" stop-color="rgb(5.715942%, 37.767029%, 49.194336%)" offset="0.679687"/><stop stop-opacity="1" stop-color="rgb(5.691528%, 38.017273%, 49.395752%)" offset="0.6875"/><stop stop-opacity="1" stop-color="rgb(5.66864%, 38.265991%, 49.597168%)" offset="0.695312"/><stop stop-opacity="1" stop-color="rgb(5.644226%, 38.516235%, 49.798584%)" offset="0.703125"/><stop stop-opacity="1" stop-color="rgb(5.619812%, 38.766479%, 50.001526%)" offset="0.710937"/><stop stop-opacity="1" stop-color="rgb(5.595398%, 39.016724%, 50.202942%)" offset="0.71875"/><stop stop-opacity="1" stop-color="rgb(5.57251%, 39.265442%, 50.404358%)" offset="0.726562"/><stop stop-opacity="1" stop-color="rgb(5.548096%, 39.515686%, 50.605774%)" offset="0.734375"/><stop stop-opacity="1" stop-color="rgb(5.523682%, 39.76593%, 50.808716%)" offset="0.742188"/><stop stop-opacity="1" stop-color="rgb(5.499268%, 40.016174%, 51.010132%)" offset="0.75"/><stop stop-opacity="1" stop-color="rgb(5.476379%, 40.264893%, 51.211548%)" offset="0.757812"/><stop stop-opacity="1" stop-color="rgb(5.451965%, 40.515137%, 51.412964%)" offset="0.765625"/><stop stop-opacity="1" stop-color="rgb(5.427551%, 40.765381%, 51.61438%)" offset="0.773438"/><stop stop-opacity="1" stop-color="rgb(5.403137%, 41.015625%, 51.817322%)" offset="0.78125"/><stop stop-opacity="1" stop-color="rgb(5.380249%, 41.265869%, 52.018738%)" offset="0.789062"/><stop stop-opacity="1" stop-color="rgb(5.355835%, 41.514587%, 52.220154%)" offset="0.796875"/><stop stop-opacity="1" stop-color="rgb(5.331421%, 41.764832%, 52.42157%)" offset="0.804688"/><stop stop-opacity="1" stop-color="rgb(5.307007%, 42.015076%, 52.624512%)" offset="0.8125"/><stop stop-opacity="1" stop-color="rgb(5.284119%, 42.26532%, 52.825928%)" offset="0.820312"/><stop stop-opacity="1" stop-color="rgb(5.259705%, 42.514038%, 53.027344%)" offset="0.828125"/><stop stop-opacity="1" stop-color="rgb(5.235291%, 42.764282%, 53.22876%)" offset="0.835938"/><stop stop-opacity="1" stop-color="rgb(5.210876%, 43.014526%, 53.430176%)" offset="0.84375"/><stop stop-opacity="1" stop-color="rgb(5.187988%, 43.264771%, 53.633118%)" offset="0.851562"/><stop stop-opacity="1" stop-color="rgb(5.163574%, 43.513489%, 53.834534%)" offset="0.859375"/><stop stop-opacity="1" stop-color="rgb(5.13916%, 43.763733%, 54.03595%)" offset="0.867188"/><stop stop-opacity="1" stop-color="rgb(5.114746%, 44.013977%, 54.237366%)" offset="0.875"/><stop stop-opacity="1" stop-color="rgb(5.091858%, 44.264221%, 54.440308%)" offset="0.882812"/><stop stop-opacity="1" stop-color="rgb(5.067444%, 44.514465%, 54.641724%)" offset="0.890625"/><stop stop-opacity="1" stop-color="rgb(5.04303%, 44.763184%, 54.84314%)" offset="0.898438"/><stop stop-opacity="1" stop-color="rgb(5.018616%, 45.013428%, 55.044556%)" offset="0.90625"/><stop stop-opacity="1" stop-color="rgb(4.995728%, 45.263672%, 55.245972%)" offset="0.914062"/><stop stop-opacity="1" stop-color="rgb(4.971313%, 45.513916%, 55.448914%)" offset="0.921875"/><stop stop-opacity="1" stop-color="rgb(4.946899%, 45.762634%, 55.65033%)" offset="0.929688"/><stop stop-opacity="1" stop-color="rgb(4.922485%, 46.012878%, 55.851746%)" offset="0.9375"/><stop stop-opacity="1" stop-color="rgb(4.899597%, 46.263123%, 56.053162%)" offset="0.945312"/><stop stop-opacity="1" stop-color="rgb(4.875183%, 46.513367%, 56.256104%)" offset="0.953125"/><stop stop-opacity="1" stop-color="rgb(4.850769%, 46.762085%, 56.45752%)" offset="0.960938"/><stop stop-opacity="1" stop-color="rgb(4.826355%, 47.012329%, 56.658936%)" offset="0.96875"/><stop stop-opacity="1" stop-color="rgb(4.803467%, 47.262573%, 56.860352%)" offset="0.976562"/><stop stop-opacity="1" stop-color="rgb(4.779053%, 47.512817%, 57.061768%)" offset="0.984375"/><stop stop-opacity="1" stop-color="rgb(4.754639%, 47.761536%, 57.264709%)" offset="0.992187"/><stop stop-opacity="1" stop-color="rgb(4.730225%, 48.01178%, 57.466125%)" offset="1"/></linearGradient></defs><g clip-path="url(#55629f69f9)"><g clip-path="url(#870a1b19e6)"><path fill="url(#f644781b3d)" d="M 25.078125 25.792969 L 25.078125 3.1875 L 4.898438 3.1875 L 4.898438 25.792969 Z M 25.078125 25.792969 " fill-rule="nonzero"/><path fill="url(#1885364027)" d="M 25.078125 25.792969 L 25.078125 3.1875 L 4.898438 3.1875 L 4.898438 25.792969 Z M 25.078125 25.792969 " fill-rule="nonzero"/></g></g><g clip-path="url(#cebaacff8c)"><g clip-path="url(#eb75d20c5c)"><path fill="url(#88c778cbdb)" d="M 19.726562 19.320312 L 19.726562 9.710938 L 10.117188 9.710938 L 10.117188 19.320312 Z M 19.726562 19.320312 " fill-rule="nonzero"/></g></g></svg>